<?xml version="1.0" standalone="no"?>
<!DOCTYPE svg PUBLIC "-//W3C//DTD SVG 20010904//EN"
 "http://www.w3.org/TR/2001/REC-SVG-20010904/DTD/svg10.dtd">
<svg version="1.0" xmlns="http://www.w3.org/2000/svg"
 width="768.000000pt" height="768.000000pt" viewBox="0 0 768.000000 768.000000"
 preserveAspectRatio="xMidYMid meet">
<metadata>
Created by potrace 1.16, written by Peter Selinger 2001-2019
</metadata>
<g transform="translate(0.000000,768.000000) scale(0.100000,-0.100000)"
fill="#FF0000" stroke="none">
<path d="M2398 6252 l-1418 -507 0 -28 c0 -32 430 -3760 434 -3764 3 -4 2357
-1308 2399 -1330 28 -14 41 -7 1230 651 661 367 1207 670 1214 674 8 5 86 647
228 1877 118 1029 215 1881 215 1895 0 24 -45 41 -1423 533 -782 279 -1431
507 -1442 506 -11 0 -658 -229 -1437 -507z m2331 -2169 c486 -1094 886 -1994
888 -2000 4 -10 -66 -13 -329 -13 l-334 0 -180 447 -179 448 -759 0 -758 0
-178 -445 -178 -445 -336 -3 -336 -2 33 72 c18 40 420 940 892 2001 473 1060
862 1927 865 1927 3 0 403 -894 889 -1987z"/>
<path d="M3579 4149 c-139 -337 -255 -616 -257 -620 -2 -5 231 -9 518 -9 287
0 520 4 518 9 -53 136 -514 1231 -518 1231 -3 0 -121 -275 -261 -611z"/>
</g>
</svg>
