<?xml version="1.0" standalone="no"?>
<!DOCTYPE svg PUBLIC "-//W3C//DTD SVG 20010904//EN"
 "http://www.w3.org/TR/2001/REC-SVG-20010904/DTD/svg10.dtd">
<svg version="1.0" xmlns="http://www.w3.org/2000/svg"
 width="900.000000pt" height="900.000000pt" viewBox="0 0 900.000000 900.000000"
 preserveAspectRatio="xMidYMid meet">
<metadata>
Created by potrace 1.16, written by Peter Selinger 2001-2019
</metadata>
<g transform="translate(0.000000,900.000000) scale(0.100000,-0.100000)"
fill="#000000" stroke="none">
<path d="M3140 8173 c-593 -19 -1017 -131 -1370 -360 -173 -113 -358 -287
-480 -453 -140 -189 -265 -485 -325 -770 -72 -341 -78 -505 -78 -1970 0 -1480
6 -1634 79 -1970 60 -274 191 -584 328 -775 84 -116 246 -288 349 -370 318
-252 720 -389 1282 -436 163 -14 2528 -21 2845 -9 430 17 734 73 1025 190 344
138 656 386 850 675 210 313 320 697 356 1240 19 293 18 2067 -2 2805 -7 274
-13 336 -54 555 -85 446 -277 812 -581 1105 -298 286 -674 448 -1194 514 -232
29 -582 36 -1770 34 -646 -1 -1213 -3 -1260 -5z m2480 -638 c674 -36 917 -91
1184 -269 235 -157 443 -484 496 -781 6 -38 20 -113 31 -165 38 -194 41 -306
46 -1455 6 -1384 -5 -1685 -73 -2090 -40 -237 -159 -483 -312 -647 -99 -106
-326 -252 -481 -308 -110 -40 -406 -98 -561 -110 -317 -24 -667 -30 -1540 -29
-1085 2 -1219 7 -1645 60 -259 32 -416 78 -576 169 -171 97 -272 192 -386 362
-120 181 -147 250 -212 543 -67 302 -74 497 -69 1910 l5 1150 27 255 c40 378
71 511 161 691 101 204 214 330 407 456 258 167 526 232 1078 262 283 15 2124
12 2420 -4z"/>
<path d="M6280 6959 c-126 -25 -260 -131 -321 -255 -32 -64 -34 -75 -34 -169
0 -92 3 -105 32 -168 40 -85 135 -182 215 -221 166 -81 337 -49 474 88 43 43
75 87 97 133 29 63 32 76 32 168 0 94 -2 105 -34 169 -64 130 -193 230 -330
256 -61 11 -68 11 -131 -1z"/>
<path d="M4197 6435 c-548 -67 -997 -351 -1311 -832 -296 -453 -368 -1067
-186 -1598 192 -564 690 -1017 1284 -1169 187 -49 527 -63 736 -32 214 33 453
114 622 212 260 150 495 382 665 654 270 434 335 1027 167 1538 -83 253 -210
462 -409 672 -179 189 -336 307 -529 399 -297 142 -679 199 -1039 156z m370
-626 c254 -28 470 -122 655 -286 175 -155 290 -332 357 -548 39 -127 51 -209
51 -361 0 -319 -107 -581 -334 -812 -219 -225 -442 -333 -745 -362 -244 -24
-499 26 -694 137 -212 119 -413 326 -515 529 -26 52 -67 178 -88 274 -20 91
-23 353 -5 450 46 248 160 461 341 640 263 261 608 380 977 339z"/>
</g>
</svg>
